<svg version="1.1" id="Layer_1" xmlns="http://www.w3.org/2000/svg" x="0" y="0" viewBox="0 0 1205 400" xml:space="preserve">
  <style>
    .st0{fill:#395d65}
  </style>
  <switch>
    <g>
      <path class="st0" d="M326.514 163.858h6.364l37.925 48.246v-48.246h6.622v60.2h-5.418l-38.871-49.364v49.364h-6.622v-60.2zM394.195 194.13v-.172c0-16.598 12.47-31.131 30.788-31.131 18.318 0 30.616 14.361 30.616 30.96v.171c0 16.598-12.47 31.132-30.788 31.132s-30.616-14.362-30.616-30.96zm54.352 0v-.172c0-13.674-9.976-24.854-23.736-24.854s-23.563 11.008-23.563 24.682v.172c0 13.674 9.975 24.854 23.735 24.854s23.564-11.008 23.564-24.682zM464.629 163.858h7.395l17.2 50.137 16.512-50.308h5.59l16.512 50.308 17.2-50.137h7.137l-21.5 60.63h-5.76l-16.513-48.847-16.598 48.846h-5.676l-21.5-60.629zM592.423 194.13v-.172c0-17.027 12.727-31.131 30.443-31.131 10.922 0 17.458 3.87 23.478 9.546l-4.644 4.987c-5.074-4.816-10.75-8.256-18.92-8.256-13.329 0-23.305 10.836-23.305 24.682v.172c0 13.932 10.062 24.854 23.305 24.854 8.256 0 13.674-3.182 19.436-8.686l4.472 4.386c-6.278 6.363-13.158 10.578-24.08 10.578-17.37 0-30.185-13.674-30.185-30.96zM656.578 202.042v-.172c0-12.556 9.805-23.22 23.22-23.22 13.33 0 23.134 10.492 23.134 23.048v.172c0 12.556-9.89 23.22-23.306 23.22-13.33 0-23.048-10.492-23.048-23.048zm39.56 0v-.172c0-9.546-7.138-17.372-16.512-17.372-9.632 0-16.254 7.826-16.254 17.2v.172c0 9.546 7.052 17.285 16.426 17.285 9.632 0 16.34-7.739 16.34-17.113zM717.294 179.596h6.622v7.74c2.924-4.815 7.568-8.686 15.222-8.686 10.75 0 17.028 7.224 17.028 17.802v27.606h-6.622v-25.972c0-8.256-4.472-13.416-12.298-13.416-7.654 0-13.33 5.59-13.33 13.932v25.456h-6.622v-44.462zM775.172 185.444h-6.106v-5.761h6.106v-3.87c0-5.075 1.376-8.944 3.87-11.438 2.236-2.236 5.504-3.44 9.546-3.44 3.096 0 5.16.344 7.31 1.118v5.761c-2.408-.688-4.214-1.117-6.45-1.117-5.16 0-7.74 3.095-7.74 9.46v3.612h14.104v5.675h-14.018v38.614h-6.622v-38.614zM803.035 201.956v-.172c0-12.814 9.03-23.134 21.328-23.134 13.158 0 20.726 10.492 20.726 23.478 0 .86 0 1.376-.086 2.15h-35.26c.946 9.631 7.74 15.05 15.653 15.05 6.105 0 10.405-2.494 14.017-6.278l4.128 3.697c-4.472 4.988-9.89 8.343-18.318 8.343-12.211 0-22.188-9.374-22.188-23.134zm35.346-2.58c-.688-8.084-5.332-15.136-14.19-15.136-7.74 0-13.587 6.45-14.448 15.136h28.638zM859.107 179.596h6.622v11.61c3.269-7.395 9.718-12.727 18.146-12.384v7.138h-.516c-9.717 0-17.63 6.966-17.63 20.382v17.716h-6.622v-44.462zM891.702 201.956v-.172c0-12.814 9.03-23.134 21.328-23.134 13.158 0 20.726 10.492 20.726 23.478 0 .86 0 1.376-.086 2.15h-35.26c.946 9.631 7.74 15.05 15.653 15.05 6.105 0 10.405-2.494 14.017-6.278l4.128 3.697c-4.472 4.988-9.89 8.343-18.317 8.343-12.212 0-22.189-9.374-22.189-23.134zm35.346-2.58c-.688-8.084-5.332-15.136-14.19-15.136-7.74 0-13.587 6.45-14.448 15.136h28.638zM947.773 179.596h6.623v7.74c2.923-4.815 7.568-8.686 15.221-8.686 10.75 0 17.029 7.224 17.029 17.802v27.606h-6.623v-25.972c0-8.256-4.471-13.416-12.297-13.416-7.655 0-13.33 5.59-13.33 13.932v25.456h-6.623v-44.462zM1000.405 202.042v-.172c0-12.556 9.804-23.22 22.79-23.22 8.428 0 13.674 3.526 17.802 7.913l-4.386 4.643c-3.526-3.698-7.482-6.708-13.502-6.708-9.03 0-15.91 7.654-15.91 17.2v.172c0 9.632 7.052 17.285 16.34 17.285 5.676 0 10.063-2.838 13.588-6.622l4.214 3.956c-4.472 4.989-9.804 8.6-18.146 8.6-12.986 0-22.79-10.577-22.79-23.047zM1050.629 201.956v-.172c0-12.814 9.03-23.134 21.328-23.134 13.157 0 20.726 10.492 20.726 23.478 0 .86 0 1.376-.086 2.15h-35.26c.946 9.631 7.74 15.05 15.652 15.05 6.106 0 10.406-2.494 14.018-6.278l4.128 3.697c-4.472 4.988-9.89 8.343-18.319 8.343-12.21 0-22.187-9.374-22.187-23.134zm35.346-2.58c-.688-8.084-5.332-15.136-14.19-15.136-7.74 0-13.588 6.45-14.448 15.136h28.638z"/>
      <g>
        <path fill="#c4d600" d="M174.699 103.976h91.685v184.47h-91.685z"/>
        <path fill="#e45dbf" d="M82 288.377h184.298L82 104.14z"/>
        <path fill="#ea7600" d="M174.19 288.446h92.281l-92.281-92.244z"/>
      </g>
    </g>
  </switch>
</svg>
