<svg version="1.1" id="Layer_1" xmlns="http://www.w3.org/2000/svg" x="0" y="0" viewBox="0 0 800 800" xml:space="preserve">
  <style>
    .st3{fill:#ffc845}.st6{fill:#395056}
  </style>
  <switch>
    <g>
      <path fill="#00afd7" d="M368.568 312.349h107.277v53.297H368.568z"/>
      <path fill="#0076a8" d="M368.568 365.646h107.277v53.768H368.568z"/>
      <path fill="#00b2a9" d="M314.542 312.349h80.423v160.833h-80.423z"/>
      <path class="st3" d="M173.521 352.447c0 22.27-18.052 40.316-40.32 40.316-22.267 0-40.317-18.047-40.317-40.316 0-22.266 18.05-40.318 40.316-40.318 22.27 0 40.321 18.052 40.321 40.318"/>
      <path class="st3" d="M12.248 312.133h120.955v80.631H12.248z"/>
      <path fill="#e5554f" d="M12.248 312.13h80.645v161.271H12.248z"/>
      <path d="M746.649 302.976c-41.063-2.91-49.146 29.747-49.146 29.747s-8.084-32.657-49.147-29.747c-41.063 2.91-46.883 53.673-36.86 74.69 10.024 21.016 19.4 36.213 86.007 88.916 66.606-52.703 75.983-67.9 86.006-88.917 10.023-21.016 4.203-71.779-36.86-74.69z" fill="#e45dbf"/>
      <g>
        <path class="st6" d="M237.776 389.237h-12.67v-12.094h12.67v-12.527h12.526v12.527h12.67v12.094h-12.67v12.527h-12.526v-12.527z"/>
      </g>
      <g>
        <path class="st6" d="M527.847 367.64h37.002v11.879h-37.002V367.64zm0 19.221h37.002v11.807h-37.002v-11.807z"/>
      </g>
    </g>
  </switch>
</svg>
