<svg version="1.1" id="Layer_1" xmlns="http://www.w3.org/2000/svg" x="0" y="0" viewBox="0 0 1205 400" xml:space="preserve">
  <style>
    .st0{fill:#c4d600}.st2{fill:#395d65}
  </style>
  <switch>
    <g>
      <path class="st0" d="M82.068 103.179v184.278h184.278z"/>
      <path class="st0" d="M266.346 103.179v184.278H82.068z"/>
      <path fill="#00966c" d="M82.068 287.457h184.278l-92.139-92.14z"/>
      <g>
        <path class="st2" d="M326.514 162.858h6.88l21.93 32.852 21.929-32.852h6.88v60.2h-6.794v-48.762l-21.93 32.25h-.344l-21.93-32.164v48.676h-6.621v-60.2zM399.098 210.157v-.172c0-9.374 7.74-14.361 19.006-14.361 5.675 0 9.717.774 13.673 1.892v-1.548c0-7.998-4.902-12.126-13.244-12.126-5.246 0-9.374 1.376-13.502 3.268l-1.977-5.418c4.902-2.235 9.717-3.698 16.167-3.698 6.278 0 11.094 1.634 14.362 4.902 3.01 3.01 4.558 7.31 4.558 12.986v27.176h-6.364v-6.708c-3.096 4.042-8.256 7.653-16.082 7.653-8.256 0-16.597-4.73-16.597-13.846zm32.765-3.44v-4.299c-3.268-.946-7.654-1.893-13.072-1.893-8.342 0-12.985 3.613-12.985 9.203v.171c0 5.59 5.16 8.859 11.18 8.859 8.17 0 14.877-4.988 14.877-12.04zM454.137 230.797l3.01-5.16c5.074 3.698 10.75 5.676 17.114 5.676 9.803 0 16.168-5.417 16.168-15.824v-5.246c-3.87 5.16-9.288 9.374-17.458 9.374-10.664 0-20.898-7.998-20.898-20.81v-.173c0-12.986 10.32-20.984 20.898-20.984 8.341 0 13.76 4.128 17.372 8.944v-7.998h6.622v36.721c0 6.88-2.065 12.126-5.676 15.739-3.956 3.955-9.89 5.933-16.942 5.933-7.396 0-14.276-2.064-20.21-6.192zm36.464-32.077v-.172c0-9.116-7.913-15.05-16.34-15.05s-15.394 5.848-15.394 14.964v.172c0 8.944 7.138 15.136 15.394 15.136 8.427 0 16.34-6.106 16.34-15.05zM510.81 210.157v-.172c0-9.374 7.74-14.361 19.005-14.361 5.676 0 9.718.774 13.674 1.892v-1.548c0-7.998-4.902-12.126-13.244-12.126-5.246 0-9.374 1.376-13.502 3.268l-1.977-5.418c4.901-2.235 9.717-3.698 16.168-3.698 6.277 0 11.093 1.634 14.36 4.902 3.01 3.01 4.559 7.31 4.559 12.986v27.176h-6.364v-6.708c-3.096 4.042-8.256 7.653-16.082 7.653-8.256 0-16.597-4.73-16.597-13.846zm32.765-3.44v-4.299c-3.268-.946-7.654-1.893-13.072-1.893-8.342 0-12.985 3.613-12.985 9.203v.171c0 5.59 5.16 8.859 11.18 8.859 8.17 0 14.877-4.988 14.877-12.04zM563.785 218.844l29.498-34.657h-28.466v-5.59h37.495v4.214l-29.583 34.657h29.583v5.59h-38.527v-4.214zM616.762 161.569h7.567v7.31h-7.567v-7.31zm.43 17.027h6.621v44.462h-6.622v-44.462zM641.614 178.596h6.622v7.74c2.924-4.815 7.569-8.686 15.222-8.686 10.75 0 17.028 7.224 17.028 17.802v27.606h-6.622v-25.972c0-8.256-4.471-13.416-12.298-13.416-7.654 0-13.33 5.59-13.33 13.932v25.456h-6.622v-44.462zM694.245 200.956v-.172c0-12.814 9.03-23.134 21.328-23.134 13.157 0 20.726 10.492 20.726 23.478 0 .86 0 1.376-.086 2.15h-35.26c.946 9.631 7.74 15.05 15.652 15.05 6.106 0 10.406-2.494 14.018-6.278l4.128 3.697c-4.472 4.988-9.89 8.343-18.317 8.343-12.212 0-22.189-9.374-22.189-23.134zm35.346-2.58c-.688-8.084-5.332-15.136-14.19-15.136-7.74 0-13.588 6.45-14.448 15.136h28.638zM813.612 214.544c-5.504 5.934-11.868 9.373-19.693 9.373-10.836 0-18.92-6.794-18.92-16.855v-.172c0-7.998 5.332-13.76 14.533-17.372-4.128-4.816-6.02-8.514-6.02-13.244v-.171c0-7.913 6.365-14.276 15.91-14.276 8.429 0 14.62 6.106 14.62 13.588v.171c0 7.654-5.418 12.556-14.19 15.652l13.76 14.018c2.666-3.87 5.075-8.428 7.224-13.416l5.59 2.58c-2.666 5.676-5.418 10.836-8.686 15.136l10.492 10.75-5.16 3.956-9.46-9.718zm-4.128-4.214l-16.082-16.598c-7.998 2.924-11.523 7.826-11.523 12.9v.172c0 6.45 5.16 11.351 12.556 11.351 5.675 0 10.664-3.01 15.05-7.825zm-1.805-34.4v-.172c0-4.816-3.613-8.341-8.515-8.341-5.418 0-9.115 3.784-9.115 8.686v.171c0 3.526 1.462 6.192 6.02 11.094 7.654-2.58 11.61-6.278 11.61-11.437zM870.113 162.858h6.88l21.93 32.852 21.93-32.852h6.88v60.2h-6.795v-48.762l-21.93 32.25h-.343l-21.93-32.164v48.676h-6.622v-60.2zM943.299 200.956v-.172c0-12.814 9.03-23.134 21.328-23.134 13.157 0 20.726 10.492 20.726 23.478 0 .86 0 1.376-.086 2.15h-35.26c.946 9.631 7.74 15.05 15.652 15.05 6.106 0 10.405-2.494 14.018-6.278l4.128 3.697c-4.472 4.988-9.89 8.343-18.319 8.343-12.21 0-22.187-9.374-22.187-23.134zm35.346-2.58c-.688-8.084-5.333-15.136-14.19-15.136-7.74 0-13.588 6.45-14.448 15.136h28.638zM996.791 200.956v-.172c0-14.534 10.577-23.134 21.241-23.134 8.256 0 13.588 4.472 17.028 9.46V160.28h6.622v62.779h-6.622v-8.945c-3.612 5.332-8.858 9.89-17.028 9.89-10.664 0-21.241-8.428-21.241-23.047zm38.527-.086v-.172c0-10.234-7.826-17.114-16.082-17.114-8.6 0-15.652 6.364-15.652 17.114v.172c0 10.491 7.225 17.2 15.652 17.2 8.256 0 16.082-6.966 16.082-17.2zM1059.053 161.569h7.568v7.31h-7.568v-7.31zm.43 17.027h6.622v44.462h-6.622v-44.462zM1080.552 210.157v-.172c0-9.374 7.74-14.361 19.006-14.361 5.675 0 9.717.774 13.673 1.892v-1.548c0-7.998-4.902-12.126-13.244-12.126-5.246 0-9.374 1.376-13.502 3.268l-1.977-5.418c4.901-2.235 9.718-3.698 16.168-3.698 6.277 0 11.094 1.634 14.361 4.902 3.01 3.01 4.558 7.31 4.558 12.986v27.176h-6.364v-6.708c-3.096 4.042-8.255 7.653-16.082 7.653-8.255 0-16.597-4.73-16.597-13.846zm32.765-3.44v-4.299c-3.268-.946-7.654-1.893-13.072-1.893-8.342 0-12.985 3.613-12.985 9.203v.171c0 5.59 5.16 8.859 11.18 8.859 8.17 0 14.877-4.988 14.877-12.04z"/>
      </g>
    </g>
  </switch>
</svg>
