<svg version="1.1" id="Layer_1" xmlns="http://www.w3.org/2000/svg" x="0" y="0" viewBox="0 0 1205 400" xml:space="preserve">
  <style>
    .st0{fill:#ffc945}.st2{fill:#395d65}
  </style>
  <switch>
    <g>
      <path class="st0" d="M265.731 151.126c0 25.338-20.54 45.872-45.878 45.872-25.335 0-45.872-20.534-45.872-45.872 0-25.336 20.537-45.876 45.872-45.876 25.338 0 45.878 20.54 45.878 45.876"/>
      <path class="st0" d="M82.23 105.255h137.626V197H82.23z"/>
      <path fill="#e55450" d="M82.23 105.252h91.76V288.75H82.23z"/>
      <g>
        <path class="st2" d="M326.514 162.858h22.531c13.588 0 22.532 7.225 22.532 19.092v.172c0 12.986-10.836 19.693-23.65 19.693h-14.62v21.243h-6.793v-60.2zm21.672 32.766c9.975 0 16.511-5.332 16.511-13.244v-.172c0-8.6-6.45-13.071-16.168-13.071h-15.221v26.487h14.878zM386.37 162.858h25.885c7.396 0 13.33 2.237 17.114 6.02 2.924 2.925 4.644 7.139 4.644 11.868v.172c0 9.976-6.88 15.824-16.34 17.544l18.49 24.596h-8.342l-17.458-23.392h-17.2v23.392h-6.793v-60.2zm25.283 30.702c9.03 0 15.48-4.644 15.48-12.384v-.172c0-7.396-5.676-11.867-15.394-11.867h-18.575v24.423h18.49zM448.29 193.13v-.172c0-16.598 12.47-31.131 30.787-31.131 18.318 0 30.615 14.361 30.615 30.96v.171c0 16.598-12.47 31.132-30.787 31.132s-30.616-14.362-30.616-30.96zm54.35 0v-.172c0-13.674-9.976-24.854-23.735-24.854-13.76 0-23.564 11.008-23.564 24.682v.172c0 13.674 9.976 24.854 23.736 24.854s23.564-11.008 23.564-24.682zM554.669 162.858h6.794v53.921h33.884v6.279h-40.678v-60.2zM605.58 200.956v-.172c0-12.814 9.03-23.134 21.328-23.134 13.157 0 20.726 10.492 20.726 23.478 0 .86 0 1.376-.086 2.15h-35.26c.946 9.631 7.74 15.05 15.652 15.05 6.106 0 10.406-2.494 14.018-6.278l4.128 3.697c-4.472 4.988-9.89 8.343-18.318 8.343-12.211 0-22.188-9.374-22.188-23.134zm35.346-2.58c-.688-8.084-5.332-15.136-14.19-15.136-7.74 0-13.588 6.45-14.448 15.136h28.638zM658.299 210.157v-.172c0-9.374 7.74-14.361 19.006-14.361 5.675 0 9.717.774 13.674 1.892v-1.548c0-7.998-4.903-12.126-13.245-12.126-5.246 0-9.374 1.376-13.502 3.268l-1.977-5.418c4.901-2.235 9.718-3.698 16.168-3.698 6.277 0 11.094 1.634 14.361 4.902 3.01 3.01 4.558 7.31 4.558 12.986v27.176h-6.363v-6.708c-3.097 4.042-8.256 7.653-16.083 7.653-8.255 0-16.597-4.73-16.597-13.846zm32.765-3.44v-4.299c-3.268-.946-7.654-1.893-13.072-1.893-8.342 0-12.985 3.613-12.985 9.203v.171c0 5.59 5.16 8.859 11.18 8.859 8.17 0 14.877-4.988 14.877-12.04zM713.854 178.596h6.622v11.61c3.268-7.395 9.717-12.727 18.145-12.384v7.138h-.516c-9.717 0-17.63 6.966-17.63 20.382v17.716h-6.621v-44.462zM751.092 178.596h6.622v7.74c2.924-4.815 7.568-8.686 15.222-8.686 10.75 0 17.028 7.224 17.028 17.802v27.606h-6.622v-25.972c0-8.256-4.472-13.416-12.298-13.416-7.654 0-13.33 5.59-13.33 13.932v25.456h-6.622v-44.462zM806.648 161.569h7.568v7.31h-7.568v-7.31zm.43 17.027h6.622v44.462h-6.622v-44.462zM831.5 178.596h6.622v7.74c2.924-4.815 7.568-8.686 15.222-8.686 10.75 0 17.028 7.224 17.028 17.802v27.606h-6.622v-25.972c0-8.256-4.472-13.416-12.298-13.416-7.654 0-13.33 5.59-13.33 13.932v25.456H831.5v-44.462zM886.368 230.797l3.01-5.16c5.074 3.698 10.75 5.676 17.114 5.676 9.804 0 16.167-5.417 16.167-15.824v-5.246c-3.869 5.16-9.287 9.374-17.457 9.374-10.664 0-20.897-7.998-20.897-20.81v-.173c0-12.986 10.319-20.984 20.897-20.984 8.342 0 13.76 4.128 17.371 8.944v-7.998h6.622v36.721c0 6.88-2.063 12.126-5.675 15.739-3.957 3.955-9.89 5.933-16.942 5.933-7.396 0-14.276-2.064-20.21-6.192zm36.464-32.077v-.172c0-9.116-7.912-15.05-16.34-15.05s-15.394 5.848-15.394 14.964v.172c0 8.944 7.138 15.136 15.394 15.136 8.428 0 16.34-6.106 16.34-15.05z"/>
      </g>
    </g>
  </switch>
</svg>
