<svg
  x="0"
  y="0"
  version="1.1"
  id="aoeu-logo-vertical"
  xmlns="http://www.w3.org/2000/svg"
  xml:space="preserve"
  viewBox="61.27 74.57 282.47 206.35"
  fill="#00AFD7">
  <switch>
    <g>
      <path class="st0" d="M64.94 248.836c0 1.553.862 2.12 2.144 2.12.64 0 1.183-.124 1.849-.444v1.627c-.666.345-1.38.542-2.293.542-2.045 0-3.598-1.01-3.598-3.598v-7.69h-1.775v-1.677h1.775v-3.845h1.898v3.845h4.042v1.676H64.94v7.444zM76.697 252.459h-1.898v-17.992h1.898v7.468c.838-1.38 2.168-2.49 4.362-2.49 3.081 0 4.88 2.07 4.88 5.102v7.912h-1.898v-7.443c0-2.367-1.281-3.845-3.524-3.845-2.193 0-3.82 1.602-3.82 3.992v7.296zM97.573 251.103c1.75 0 2.983-.714 4.018-1.799l1.183 1.06c-1.282 1.43-2.834 2.39-5.25 2.39-3.5 0-6.359-2.686-6.359-6.654 0-3.697 2.588-6.655 6.113-6.655 3.771 0 5.94 3.007 5.94 6.754 0 .172 0 .37-.025.591H93.088c.27 2.76 2.243 4.313 4.485 4.313zm3.722-5.718c-.197-2.317-1.528-4.338-4.067-4.338-2.218 0-3.894 1.849-4.14 4.338h8.207zM119.609 242.156l-.567-1.552c1.405-.641 2.785-1.06 4.633-1.06 3.476 0 5.423 1.774 5.423 5.127v7.788h-1.824v-1.922c-.887 1.158-2.366 2.193-4.609 2.193-2.366 0-4.757-1.33-4.757-3.993 0-2.711 2.218-4.14 5.447-4.14 1.627 0 2.785.221 3.919.542v-.444c0-2.292-1.405-3.475-3.796-3.475-1.503 0-2.686.394-3.87.936zm.222 6.508c0 1.626 1.478 2.563 3.204 2.563 2.341 0 4.264-1.43 4.264-3.45v-1.233a13.293 13.293 0 00-3.747-.543c-2.39 0-3.721 1.036-3.721 2.663zM137.01 252.459h-1.897v-12.743h1.897v3.328c.937-2.12 2.786-3.648 5.201-3.55v2.046h-.148c-2.785 0-5.053 1.997-5.053 5.842v5.077zM150.123 248.836c0 1.553.863 2.12 2.145 2.12.64 0 1.183-.124 1.848-.444v1.627c-.665.345-1.38.542-2.292.542-2.046 0-3.598-1.01-3.598-3.598v-7.69h-1.775v-1.677h1.775v-3.845h1.897v3.845h4.043v1.676h-4.043v7.444zM175.658 252.755c-3.82 0-6.605-3.007-6.605-6.63s2.81-6.68 6.655-6.68c3.82 0 6.63 3.007 6.63 6.63 0 3.624-2.835 6.68-6.68 6.68zm0-11.634c-2.76 0-4.658 2.194-4.658 4.954s2.021 4.98 4.708 4.98c2.76 0 4.682-2.195 4.682-4.93 0-2.786-2.045-5.004-4.732-5.004zM194.367 239.766v1.626h-4.018v11.067h-1.898v-11.067h-1.75v-1.651h1.75v-1.11c0-2.784 1.405-4.263 3.846-4.263.886 0 1.478.099 2.095.32v1.652c-.691-.198-1.209-.32-1.85-.32-1.478 0-2.218.886-2.218 2.71v1.036h4.043zM214.725 251.103c1.75 0 2.983-.714 4.017-1.799l1.184 1.06c-1.282 1.43-2.835 2.39-5.25 2.39-3.5 0-6.36-2.686-6.36-6.654 0-3.697 2.59-6.655 6.113-6.655 3.771 0 5.94 3.007 5.94 6.754 0 .172 0 .37-.024.591H210.24c.27 2.76 2.243 4.313 4.485 4.313zm3.722-5.718c-.197-2.317-1.528-4.338-4.067-4.338-2.218 0-3.894 1.849-4.14 4.338h8.207zM236.39 252.459v-2.564c-1.035 1.529-2.538 2.835-4.88 2.835-3.056 0-6.088-2.415-6.088-6.63 0-4.19 3.032-6.655 6.089-6.655 2.366 0 3.894 1.282 4.88 2.711v-7.69h1.898v17.993h-1.898zm-4.535-11.313c-2.464 0-4.485 1.824-4.485 4.93 0 3.03 2.07 4.954 4.485 4.954 2.367 0 4.61-1.972 4.61-4.955 0-2.957-2.243-4.929-4.61-4.929zM253.546 239.716h1.873v12.743h-1.873v-2.218c-.863 1.38-2.17 2.489-4.363 2.489-3.08 0-4.88-2.07-4.88-5.102v-7.912h1.898v7.444c0 2.366 1.281 3.845 3.524 3.845 2.17 0 3.821-1.602 3.821-3.993v-7.296zM267.398 252.755c-3.722 0-6.531-3.032-6.531-6.63 0-3.624 2.81-6.68 6.531-6.68 2.416 0 3.919 1.01 5.101 2.268l-1.257 1.33c-1.01-1.059-2.143-1.922-3.869-1.922-2.588 0-4.56 2.194-4.56 4.954 0 2.785 2.022 4.98 4.684 4.98 1.626 0 2.883-.814 3.894-1.899l1.207 1.134c-1.281 1.43-2.81 2.465-5.2 2.465zM278.44 242.156l-.566-1.552c1.404-.641 2.784-1.06 4.634-1.06 3.475 0 5.422 1.774 5.422 5.127v7.788h-1.824v-1.922c-.887 1.158-2.366 2.193-4.61 2.193-2.365 0-4.756-1.33-4.756-3.993 0-2.711 2.218-4.14 5.447-4.14 1.626 0 2.785.221 3.919.542v-.444c0-2.292-1.404-3.475-3.796-3.475-1.503 0-2.686.394-3.87.936zm.222 6.508c0 1.626 1.479 2.563 3.205 2.563 2.341 0 4.263-1.43 4.263-3.45v-1.233a13.287 13.287 0 00-3.745-.543c-2.392 0-3.723 1.036-3.723 2.663zM296.878 248.836c0 1.553.862 2.12 2.143 2.12.641 0 1.184-.124 1.85-.444v1.627c-.666.345-1.381.542-2.293.542-2.046 0-3.598-1.01-3.598-3.598v-7.69h-1.775v-1.677h1.775v-3.845h1.898v3.845h4.041v1.676h-4.041v7.444zM306.786 236.931v-2.095h2.17v2.095h-2.17zm.122 15.528v-12.743h1.898v12.743h-1.898zM321.007 252.755c-3.82 0-6.604-3.007-6.604-6.63s2.809-6.68 6.654-6.68c3.82 0 6.63 3.007 6.63 6.63 0 3.624-2.835 6.68-6.68 6.68zm0-11.634c-2.76 0-4.658 2.194-4.658 4.954s2.021 4.98 4.708 4.98c2.76 0 4.683-2.195 4.683-4.93 0-2.786-2.046-5.004-4.733-5.004zM334.49 252.459h-1.898v-12.743h1.898v2.219c.838-1.38 2.169-2.49 4.363-2.49 3.08 0 4.88 2.07 4.88 5.102v7.912h-1.898v-7.443c0-2.367-1.282-3.845-3.525-3.845-2.193 0-3.82 1.602-3.82 3.992v7.296z"></path>
      <g>
        <path class="st0" d="M63 273.515v-9.92h1.926v9.798c0 3.681 1.95 5.753 5.216 5.753 3.144 0 5.143-1.901 5.143-5.631v-9.92h1.927v9.774c0 4.973-2.853 7.557-7.119 7.557-4.217 0-7.093-2.584-7.093-7.411zM96.278 263.594h1.804l10.75 13.675v-13.675h1.877v17.063h-1.536l-11.018-13.992v13.992h-1.877v-17.063zM130.215 263.594h1.925v17.063h-1.925v-17.063zM150.181 263.594h2.145l6.07 14.699 6.095-14.699h2.071l-7.337 17.186h-1.707l-7.337-17.186zM184.435 263.594h12.335v1.755h-10.408v5.826h9.31v1.755h-9.31v5.973h10.53v1.754h-12.457v-17.063zM215.276 263.594h7.337c2.097 0 3.778.634 4.85 1.706.83.829 1.318 2.024 1.318 3.364v.048c0 2.829-1.951 4.486-4.632 4.973l5.241 6.972h-2.364l-4.949-6.63h-4.875v6.63h-1.926v-17.063zm7.166 8.702c2.56 0 4.388-1.316 4.388-3.51v-.048c0-2.097-1.609-3.365-4.363-3.365h-5.265v6.923h5.24zM246.287 278.171l1.194-1.414c1.78 1.609 3.487 2.413 5.851 2.413 2.29 0 3.802-1.218 3.802-2.9v-.049c0-1.585-.852-2.486-4.436-3.242-3.925-.854-5.728-2.121-5.728-4.925v-.048c0-2.681 2.364-4.656 5.606-4.656 2.487 0 4.266.707 5.997 2.096l-1.122 1.487c-1.584-1.291-3.168-1.852-4.923-1.852-2.22 0-3.633 1.219-3.633 2.754v.049c0 1.609.878 2.51 4.632 3.315 3.802.83 5.558 2.219 5.558 4.827v.049c0 2.924-2.438 4.827-5.827 4.827-2.705 0-4.923-.903-6.97-2.731zM277.689 263.594h1.925v17.063h-1.925v-17.063zM303.554 265.373h-5.753v-1.779h13.432v1.78h-5.752v15.283h-1.927v-15.284zM334.59 273.905l-7.094-10.31h2.34l5.753 8.53 5.803-8.53h2.242l-7.094 10.286v6.776h-1.95v-6.752z"></path>
      </g>
      <g>
        <path class="st0" d="M260.485 119.624c-7.415-26.135-31.516-45.335-60.17-45.047-6.149.062-12.71 1.905-16.434 6.457-1.944 2.376-2.473 5.97-1.152 9 .414.948 2.052 3.779 5.778 4.319 1.461.212 3.942-.072 6.462.144 4.69.402 7.92 2.52 9.143 6.48 1.392 4.503-1.584 9.647-8.495 12.023-4.318 1.484-10.455 2.586-19.655 7.2-18.63 9.341-25.433 29.752-21.923 45.249 3.053 13.48 12.666 24.83 25.325 29.644 16.469 6.264 38.162 4.975 55.635-6.641 13.157-8.748 19.609-20.291 21.958-25.487 6.48-14.327 7.567-29.108 3.528-43.341zm-62.239 53.336c-8.535 2.472-17.458-2.443-19.93-10.978-2.473-8.535 2.442-17.458 10.977-19.93 8.535-2.472 17.459 2.443 19.93 10.978 2.473 8.535-2.442 17.458-10.977 19.93zm20.77-73.711a5.832 5.832 0 110-11.664 5.832 5.832 0 010 11.664zm9.701 12.197a7.289 7.289 0 1114.578 0 7.289 7.289 0 01-14.578 0zm9.017 37.108a9.029 9.029 0 110-18.058 9.029 9.029 0 010 18.058z"></path>
      </g>
    </g>
  </switch>
</svg>
