<svg version="1.1" id="Layer_1" xmlns="http://www.w3.org/2000/svg" x="0" y="0" viewBox="0 0 1205 400" xml:space="preserve">
  <style>
    .st0{fill:#395d65}
  </style>
  <switch>
    <g>
      <path class="st0" d="M326.514 163.229h43.257v6.278h-36.463v21.5H365.9v6.192h-32.593v26.229h-6.794v-60.199zM385.337 163.229h6.794v53.921h33.884v6.278h-40.678v-60.199zM440.634 163.229h43.515v6.192h-36.721v20.554h32.851v6.192h-32.851v21.07h37.151v6.19h-43.945V163.23zM549.682 163.229l-22.188 29.498 23.047 30.7h-8.083l-19.264-25.97-19.263 25.97h-7.827l23.048-30.7-22.187-29.498h7.997l18.404 24.768 18.404-24.768h7.912zM590.96 193.5v-.171c0-17.028 12.728-31.132 30.443-31.132 10.922 0 17.458 3.87 23.478 9.546l-4.644 4.988c-5.074-4.816-10.75-8.256-18.92-8.256-13.329 0-23.305 10.836-23.305 24.682v.172c0 13.93 10.062 24.853 23.305 24.853 8.256 0 13.674-3.182 19.436-8.686l4.473 4.386c-6.279 6.364-13.159 10.578-24.08 10.578-17.372 0-30.186-13.674-30.186-30.96zM658.04 206.572v-27.605h6.621v25.971c0 8.256 4.472 13.416 12.298 13.416 7.567 0 13.33-5.59 13.33-13.932v-25.455h6.535v44.46h-6.536v-7.739c-3.01 4.816-7.567 8.686-15.222 8.686-10.75 0-17.027-7.224-17.027-17.802zM714.11 178.967h6.622v11.61c3.269-7.396 9.718-12.728 18.146-12.384v7.138h-.516c-9.717 0-17.63 6.966-17.63 20.38v17.717h-6.622v-44.461zM751.349 178.967h6.622v11.61c3.268-7.396 9.717-12.728 18.145-12.384v7.138h-.515c-9.718 0-17.63 6.966-17.63 20.38v17.717h-6.622v-44.461zM788.76 161.94h7.567v7.309h-7.567v-7.31zm.43 17.027h6.622v44.46h-6.623v-44.46zM810.86 201.412v-.172c0-12.555 9.804-23.219 22.79-23.219 8.427 0 13.673 3.526 17.801 7.912l-4.386 4.644c-3.526-3.698-7.482-6.708-13.502-6.708-9.03 0-15.91 7.654-15.91 17.2v.171c0 9.632 7.052 17.286 16.34 17.286 5.676 0 10.062-2.838 13.588-6.622l4.214 3.956c-4.472 4.988-9.804 8.6-18.146 8.6-12.985 0-22.79-10.578-22.79-23.048zM864.094 206.572v-27.605h6.622v25.971c0 8.256 4.472 13.416 12.298 13.416 7.567 0 13.329-5.59 13.329-13.932v-25.455h6.536v44.46h-6.536v-7.739c-3.01 4.816-7.568 8.686-15.222 8.686-10.75 0-17.027-7.224-17.027-17.802zM920.768 160.65h6.622v62.778h-6.622v-62.779zM944.502 206.572v-27.605h6.622v25.971c0 8.256 4.472 13.416 12.298 13.416 7.567 0 13.329-5.59 13.329-13.932v-25.455h6.536v44.46h-6.536v-7.739c-3.01 4.816-7.567 8.686-15.222 8.686-10.75 0-17.027-7.224-17.027-17.802zM1000.573 178.967h6.622v7.482c2.924-4.386 6.88-8.428 14.363-8.428 7.223 0 11.867 3.87 14.275 8.858 3.182-4.902 7.912-8.858 15.651-8.858 10.235 0 16.512 6.88 16.512 17.888v27.519h-6.621v-25.971c0-8.6-4.3-13.416-11.524-13.416-6.708 0-12.298 4.988-12.298 13.76v25.627h-6.535v-26.143c0-8.342-4.387-13.244-11.439-13.244s-12.384 5.848-12.384 14.018v25.369h-6.622v-44.461z"/>
      <g>
        <path fill="#00afd7" d="M143.511 105.871h122.063v60.643H143.511z"/>
        <path fill="#0076a8" d="M143.511 166.514h122.063v61.178H143.511z"/>
        <path fill="#00b2a9" d="M82.039 105.871h91.508v183H82.039z"/>
      </g>
    </g>
  </switch>
</svg>
