<svg version="1.1" id="Layer_1" xmlns="http://www.w3.org/2000/svg" x="0" y="0" viewBox="0 0 1205 400" xml:space="preserve">
  <style>
    .st2{fill:#395d65}
  </style>
  <switch>
    <g>
      <path d="M264.117 200.01c.044-1.166.089-2.332.089-3.508 0-1.177-.045-2.343-.09-3.509v-88.748h-92.163v.004c-50.945 0-92.253 41.302-92.253 92.253 0 50.948 41.308 92.252 92.253 92.252.05 0 .099-.003.148-.003h92.016v-88.74z" fill="#485daa"/>
      <path fill="#7474c1" d="M172.073 196.397l92.04 92.145v-184.29z"/>
      <g>
        <path class="st2" d="M321.548 192.63v-.172c0-16.512 12.126-31.132 30.186-31.132 10.148 0 16.425 2.924 22.445 7.998l-4.385 5.16c-4.644-4.042-9.805-6.88-18.318-6.88-13.33 0-22.876 11.266-22.876 24.682v.172c0 14.361 9.202 25.025 23.822 25.025 6.88 0 13.244-2.666 17.372-6.02V196.5h-18.318v-6.105h24.853v23.994c-5.59 4.987-14.017 9.202-24.165 9.202-18.92 0-30.616-13.76-30.616-30.96zM392.928 178.096h6.622v11.61c3.268-7.396 9.718-12.728 18.146-12.384v7.138h-.517c-9.717 0-17.63 6.966-17.63 20.382v17.716h-6.621v-44.462zM424.662 209.657v-.172c0-9.374 7.74-14.361 19.006-14.361 5.676 0 9.718.773 13.674 1.892v-1.548c0-7.998-4.902-12.126-13.244-12.126-5.246 0-9.374 1.376-13.502 3.268l-1.978-5.418c4.902-2.236 9.718-3.698 16.168-3.698 6.278 0 11.094 1.634 14.362 4.902 3.01 3.01 4.558 7.31 4.558 12.985v27.177h-6.364v-6.708c-3.096 4.042-8.256 7.653-16.082 7.653-8.256 0-16.598-4.73-16.598-13.846zm32.766-3.44v-4.299c-3.268-.946-7.654-1.893-13.072-1.893-8.342 0-12.986 3.613-12.986 9.203v.171c0 5.59 5.16 8.859 11.18 8.859 8.17 0 14.878-4.988 14.878-12.04zM477.638 200.456v-.172c0-14.535 10.578-23.134 21.241-23.134 8.256 0 13.588 4.472 17.028 9.46v-26.832h6.622v62.78h-6.622v-8.945c-3.612 5.332-8.858 9.89-17.028 9.89-10.663 0-21.241-8.428-21.241-23.047zm38.527-.086v-.172c0-10.234-7.826-17.114-16.082-17.114-8.6 0-15.651 6.364-15.651 17.114v.172c0 10.491 7.223 17.2 15.651 17.2 8.256 0 16.082-6.966 16.082-17.2zM539.041 205.702v-27.606h6.622v25.971c0 8.256 4.472 13.416 12.298 13.416 7.568 0 13.33-5.59 13.33-13.931v-25.456h6.535v44.462h-6.536v-7.74c-3.01 4.816-7.567 8.685-15.221 8.685-10.75 0-17.028-7.224-17.028-17.8zM591.759 209.657v-.172c0-9.374 7.74-14.361 19.006-14.361 5.676 0 9.718.773 13.674 1.892v-1.548c0-7.998-4.903-12.126-13.244-12.126-5.247 0-9.375 1.376-13.502 3.268l-1.978-5.418c4.901-2.236 9.718-3.698 16.168-3.698 6.277 0 11.094 1.634 14.361 4.902 3.01 3.01 4.558 7.31 4.558 12.985v27.177h-6.363v-6.708c-3.097 4.042-8.256 7.653-16.082 7.653-8.256 0-16.598-4.73-16.598-13.846zm32.766-3.44v-4.299c-3.269-.946-7.655-1.893-13.073-1.893-8.341 0-12.985 3.613-12.985 9.203v.171c0 5.59 5.16 8.859 11.18 8.859 8.17 0 14.878-4.988 14.878-12.04zM649.207 210.775v-26.831h-6.191v-5.848h6.191V164.68h6.622v13.416h14.104v5.848h-14.104v25.972c0 5.418 3.01 7.396 7.482 7.396 2.236 0 4.128-.43 6.45-1.548v5.675c-2.322 1.205-4.816 1.892-7.998 1.892-7.138 0-12.556-3.525-12.556-12.556zM679.994 200.456v-.172c0-12.814 9.03-23.134 21.328-23.134 13.158 0 20.726 10.492 20.726 23.478 0 .86 0 1.376-.086 2.15h-35.26c.947 9.631 7.74 15.05 15.653 15.05 6.105 0 10.405-2.494 14.017-6.278l4.128 3.697c-4.471 4.988-9.89 8.343-18.317 8.343-12.212 0-22.189-9.374-22.189-23.134zm35.346-2.58c-.687-8.085-5.332-15.136-14.19-15.136-7.74 0-13.587 6.45-14.448 15.135h28.638zM762.725 192.63v-.172c0-17.028 12.727-31.132 30.443-31.132 10.922 0 17.458 3.87 23.478 9.546l-4.644 4.988c-5.074-4.816-10.75-8.256-18.92-8.256-13.329 0-23.305 10.836-23.305 24.682v.172c0 13.932 10.062 24.854 23.305 24.854 8.256 0 13.674-3.182 19.436-8.686l4.472 4.386c-6.278 6.363-13.158 10.578-24.08 10.578-17.37 0-30.185-13.674-30.185-30.96zM826.88 200.542v-.172c0-12.556 9.805-23.22 23.22-23.22 13.33 0 23.134 10.492 23.134 23.048v.172c0 12.556-9.89 23.22-23.306 23.22-13.33 0-23.048-10.492-23.048-23.048zm39.56 0v-.172c0-9.546-7.138-17.372-16.512-17.372-9.632 0-16.254 7.826-16.254 17.2v.172c0 9.546 7.052 17.285 16.426 17.285 9.632 0 16.34-7.739 16.34-17.113zM886.908 205.702v-27.606h6.622v25.971c0 8.256 4.472 13.416 12.298 13.416 7.568 0 13.33-5.59 13.33-13.931v-25.456h6.536v44.462h-6.537v-7.74c-3.01 4.816-7.567 8.685-15.221 8.685-10.75 0-17.028-7.224-17.028-17.8zM942.98 178.096h6.622v11.61c3.268-7.396 9.718-12.728 18.145-12.384v7.138h-.515c-9.718 0-17.63 6.966-17.63 20.382v17.716h-6.622v-44.462zM976.52 216.882l3.353-4.73c4.817 3.612 10.148 5.675 15.394 5.675 5.332 0 9.202-2.752 9.202-7.052v-.171c0-4.472-5.246-6.192-11.094-7.827-6.966-1.977-14.706-4.385-14.706-12.555v-.172c0-7.654 6.364-12.728 15.136-12.728 5.418 0 11.438 1.892 15.996 4.902l-3.01 4.988c-4.128-2.666-8.858-4.3-13.158-4.3-5.246 0-8.6 2.752-8.6 6.45v.172c0 4.214 5.504 5.847 11.438 7.653 6.88 2.064 14.276 4.731 14.276 12.729v.172c0 8.428-6.967 13.329-15.824 13.329-6.364 0-13.416-2.493-18.403-6.535zM1022.7 200.456v-.172c0-12.814 9.03-23.134 21.329-23.134 13.157 0 20.725 10.492 20.725 23.478 0 .86 0 1.376-.086 2.15h-35.26c.947 9.631 7.74 15.05 15.653 15.05 6.105 0 10.405-2.494 14.017-6.278l4.128 3.697c-4.471 4.988-9.89 8.343-18.318 8.343-12.211 0-22.188-9.374-22.188-23.134zm35.346-2.58c-.687-8.085-5.332-15.136-14.19-15.136-7.74 0-13.587 6.45-14.448 15.135h28.638zM1075.074 216.882l3.354-4.73c4.816 3.612 10.147 5.675 15.394 5.675 5.332 0 9.202-2.752 9.202-7.052v-.171c0-4.472-5.246-6.192-11.094-7.827-6.966-1.977-14.706-4.385-14.706-12.555v-.172c0-7.654 6.364-12.728 15.136-12.728 5.418 0 11.438 1.892 15.996 4.902l-3.01 4.988c-4.128-2.666-8.858-4.3-13.158-4.3-5.246 0-8.6 2.752-8.6 6.45v.172c0 4.214 5.504 5.847 11.438 7.653 6.88 2.064 14.276 4.731 14.276 12.729v.172c0 8.428-6.967 13.329-15.824 13.329-6.364 0-13.416-2.493-18.404-6.535z"/>
      </g>
    </g>
  </switch>
</svg>
